#!OML:ASF E:/inclinewalkrobotboard/Project1/Captureday1/Session1/subject1.ASF
:FULLY-SPECIFIED
:DEGREES
13
root 0 0 0 21.212259999729103 34.54225001058944 4.207782368311998
lowerback -12.45082593894107 -0.9000961762675266 -8.753905298060337
upperback -10.788020592750511 -1.0459741109019636 4.45122830622892
thorax -4.422739483481777 0.26086600631952594 10.08998328959327
lowerneck -6.320000162323013 -4.355996665366409 -2.4453818096139366
upperneck 32.20172396837699 -4.8829466107200625 -3.74954794541038
head 11.8548310598713 -2.73693624344118 -1.4044365373877354
rclavicle -5.428899897182285E-15 -7.83018883819201E-16
rhumerus 55.86499314794108 -13.61199062729233 -76.21326401567903
rradius -2.1856816131049364
rwrist 78.39881894812001
rhand 26.735875593032556 -16.23256174636566
rfingers 7.125019999999954
rthumb 51.04055681247742 -39.47917021527374
lclavicle -2.0791578941711723E-15 -9.09119849508094E-16
lhumerus 18.31126577246123 21.58811491129829 -5.628018455488423
lradius 13.089398975992847
lwrist -39.46052150341865
lhand 9.814852346339114 37.72254126271165
lfingers 7.125020000000037
lthumb 34.980615988138254 64.96015561827002
rfemur -48.09963492834797 7.904245882994502 15.273697119393361
rtibia 36.24939418566596
rfoot -42.7558549214711 -11.847835203144372
rtoes 61.377291304433726
lfemur -3.3156392141708224 -12.235772062345392 -28.658021383196715
ltibia 28.31621153140393
lfoot -36.73881623913799 6.01698466266172
ltoes -3.6203672064359065
14
root 0 0 0 12.754084436318534 42.052120710645994 5.294621908650827
lowerback -9.638547986442811 -2.6912532947679093 -7.0572342440457705
upperback -10.161874731468632 -3.260963525372671 6.803058481763054
thorax -5.085437015869215 -0.7823785748406842 11.49886120732317
lowerneck -4.356764917061381 -6.835092571602626 -5.17251695943324
upperneck 30.653606626430676 -7.784523264567713 -2.63560095021759
head 10.967968361007868 -4.303104807822536 -1.0591168796272148
rclavicle -3.378514317716232E-15 -1.8570784707179763E-15
rhumerus 60.289085319936646 -13.509917484221596 -79.43572807330641
rradius -1.6800936355660347
rwrist 76.80520668189999
rhand 26.306657472587688 -16.324991409294384
rfingers 7.125019999999954
rthumb 50.62116114603593 -39.65091315434462
lclavicle -3.005194286234789E-15 -3.4138033905757783E-15
lhumerus 27.449914809560163 24.10901326379355 -5.33882351683409
lradius 13.115471527944077
lwrist -39.33895465778701
lhand 6.526497977308935 37.0548387456177
lfingers 7.125020000000022
lthumb 31.81649037769353 64.81315479967766
rfemur -49.72364624410335 6.8700928468054485 14.71893513167835
rtibia 37.29307545986855
rfoot -50.06554019544747 -7.756159869592018
rtoes 61.718660073637324
lfemur -0.5527301314266779 -12.269979084134418 -29.69186466671337
ltibia 27.565013592119616
lfoot -28.126753603435944 3.823983610908197
ltoes -7.728975153812586
15
root 0 0 0 10.434964560402257 42.05041958685635 5.275903267801409
lowerback -9.34339929548226 -3.8649995153467454 -6.296602154405916
upperback -10.455473492480479 -4.723939664538247 7.965283944424993
thorax -5.38850551034879 -1.451576882982298 12.192586350369446
lowerneck -3.195158382723938 -8.314509555092153 -6.694952411826693
upperneck 31.04613650542354 -9.84659144486115 -1.460132343170752
head 10.987725835305998 -5.2967585009506335 -0.694035725930926
rclavicle -3.2316470340708576E-15 -2.93014550679649E-15
rhumerus 62.4828401151429 -13.622833813420964 -80.37068573174602
rradius -0.958273785185618
rwrist 74.81699733736309
rhand 26.1104074308871 -16.373948347590016
rfingers 7.125019999999955
rthumb 50.42409977919358 -39.73425602604013
lclavicle -5.998258237449569E-15 -6.604849013852081E-15
lhumerus 38.5491981880952 28.030802519603796 -5.061907543751069
lradius 13.071563694341243
lwrist -39.34850114211247
lhand 2.6973195979121147 36.03335245048528
lfingers 7.125020000000004
lthumb 28.128934330832422 64.42623792574972
rfemur -50.25372931602894 5.298261540569712 14.037292210121649
rtibia 38.572034292680904
rfoot -55.786793940309835 -4.344087720088748
rtoes 61.23977082280352
lfemur 0.6223327023666556 -12.30888004514849 -30.46670501513826
ltibia 27.54694749150712
lfoot -22.607585510843148 2.598623330152927
ltoes -10.10623565381327
16
root 0 0 0 10.751518665185671 42.71157789887312 4.082369809875779
lowerback -9.19566127027719 -4.239047610989289 -5.531440371319483
upperback -10.580384877914804 -5.199196664073287 8.360921917908012
thorax -5.452380493642371 -1.74029896409248 12.13903343598021
lowerneck -2.91811858361777 -9.001622519924403 -7.257675668287648
upperneck 32.18026055746831 -10.897261715559116 -1.2320797483846953
head 11.445203876001633 -5.785324372973137 -0.6361790524754769
rclavicle -4.79135903997299E-15 -2.30067598729944E-15
rhumerus 64.94680388721277 -14.116331498452784 -80.9809862013636
rradius -0.3217624005694546
rwrist 73.51034237542942
rhand 25.903128892119984 -16.409531507721113
rfingers 7.125019999999955
rthumb 50.21881426820823 -39.81752344483115
lclavicle -7.0481074651197875E-15 -6.453510722517637E-15
lhumerus 49.22224142728113 34.301818884770135 -2.9436048347048356
lradius 12.097552632325797
lwrist -39.70158713947815
lhand -1.9760926740516016 34.14806364547056
lfingers 7.125019999999978
lthumb 23.65937938986551 63.35236314004862
rfemur -49.67995355707916 2.4417235699935134 12.713913560412053
rtibia 39.49988036055091
rfoot -63.727936396307605 0.5581027986868676
rtoes 59.6495236961121
lfemur -0.6940029753194352 -12.427171355455934 -32.1864935979566
ltibia 29.94204112365751
lfoot -19.3255093495676 2.747908038029495
ltoes -11.224399232269258
17
root 0 0 0 11.0731955827389 43.23542216950169 3.3182261756972036
lowerback -9.002849434309617 -4.277529451324435 -5.096533830521828
upperback -10.56125584750902 -5.244243127785497 8.458628986492643
thorax -5.471324817653597 -1.8046210427786973 11.982263772948649
lowerneck -2.9312676888024694 -9.226614013893307 -7.403104807297689
upperneck 32.675626765174336 -11.249848701598056 -1.2541349941162085
head 11.664440378376344 -5.948406386532985 -0.651600040656305
rclavicle -4.698985151183953E-15 -1.5685382955101088E-15
rhumerus 66.91660591001931 -14.328225350473986 -82.19282448109776
rradius -0.2359415318353264
rwrist 73.41981275819748
rhand 25.733614830448854 -16.4451659277073
rfingers 7.125019999999954
rthumb 50.05542167591953 -39.89121848114072
lclavicle -4.350454847390812E-15 -4.7300322567738504E-15
lhumerus 51.74440060986132 37.83572381423657 -0.667459947995674
lradius 10.995639173138422
lwrist -40.19452480637538
lhand -4.308601243551298 32.988857198366375
lfingers 7.125019999999965
lthumb 21.453605772766004 62.614065054305016
rfemur -48.667200772676466 0.40884780503327534 11.666700754223669
rtibia 38.84990719396298
rfoot -70.00272762247144 4.788642983158216
rtoes 58.08165994226371
lfemur -2.8466485039892433 -12.198277723360087 -33.47295280643283
ltibia 33.017381056385545
lfoot -18.14923606494412 3.2751942742020077
ltoes -11.328815279153746
18
root 0 0 0 11.329371224732522 43.636614672439705 2.704948858554074
lowerback -8.841569916649279 -4.286021299681806 -4.747630935333106
upperback -10.541700951639392 -5.249268874409711 8.52155580656727
thorax -5.490760606545514 -1.840711918200822 11.839706777056954
lowerneck -2.959005337459513 -9.38223498768708 -7.498715998505848
upperneck 33.01714938357795 -11.495648853875354 -1.2772764230477982
head 11.820176869938999 -6.061496384906592 -0.6657054267063842
rclavicle -3.867134189794673E-15 -8.361474078375349E-16
rhumerus 68.69293534421364 -14.346197217326301 -83.76886460522518
rradius -0.27439045248641847
rwrist 73.4484962821369
rhand 25.59540999116631 -16.48479208600611
rfingers 7.125019999999953
rthumb 49.922256460134705 -39.958728530813644
lclavicle -1.201435306497306E-15 -2.8576574569078333E-15
lhumerus 52.01074572822146 40.53827585389403 1.6120908910590899
lradius 9.864854310202777
lwrist -40.79702939853654
lhand -5.936507228179583 32.09458720020554
lfingers 7.125019999999955
lthumb 19.92438081851475 62.02930509275183
rfemur -47.113158280913936 -1.7562847602861353 10.485383512652561
rtibia 37.69411450667895
rfoot -76.3016663590567 9.49596656148374
rtoes 56.235347759654374
lfemur -6.098944567807969 -11.611010309630812 -34.90628025162187
ltibia 37.155691899389474
lfoot -16.533780001890573 3.939096316237052
ltoes -11.388584755666296
